<?xml version="1.0" encoding="utf-8"?>
<svg version="1.1" xmlns:xlink="http://www.w3.org/1999/xlink" width="12px" height="12px" viewBox="824 497  12 12" xmlns="http://www.w3.org/2000/svg">
  <path d="M 830 497  C 833.36 497  836 499.64  836 503  C 836 506.36  833.36 509  830 509  C 826.64 509  824 506.36  824 503  C 824 499.64  826.64 497  830 497  Z " fill-rule="nonzero" fill="#ffffff" stroke="none" />
  <path d="M 830 497.5  C 833.08 497.5  835.5 499.92  835.5 503  C 835.5 506.08  833.08 508.5  830 508.5  C 826.92 508.5  824.5 506.08  824.5 503  C 824.5 499.92  826.92 497.5  830 497.5  Z " stroke-width="1" stroke="#797979" fill="none" />
  <path d="M 830 506  C 828.32 506  827 504.68  827 503  C 827 501.32  828.32 500  830 500  C 831.68 500  833 501.32  833 503  C 833 504.68  831.68 506  830 506  " fill-rule="nonzero" fill="#797979" stroke="none" />
</svg>