<?xml version="1.0" encoding="utf-8"?>
<svg version="1.1" xmlns:xlink="http://www.w3.org/1999/xlink" width="12px" height="12px" viewBox="824 559  12 12" xmlns="http://www.w3.org/2000/svg">
  <path d="M 830 559  C 833.36 559  836 561.64  836 565  C 836 568.36  833.36 571  830 571  C 826.64 571  824 568.36  824 565  C 824 561.64  826.64 559  830 559  Z " fill-rule="nonzero" fill="#ffffff" stroke="none" />
  <path d="M 830 559.5  C 833.08 559.5  835.5 561.92  835.5 565  C 835.5 568.08  833.08 570.5  830 570.5  C 826.92 570.5  824.5 568.08  824.5 565  C 824.5 561.92  826.92 559.5  830 559.5  Z " stroke-width="1" stroke="#797979" fill="none" />
  <path d="M 830 568  C 828.32 568  827 566.68  827 565  C 827 563.32  828.32 562  830 562  C 831.68 562  833 563.32  833 565  C 833 566.68  831.68 568  830 568  " fill-rule="nonzero" fill="#797979" stroke="none" />
</svg>